<svg id="Layer_1" enable-background="new 0 0 512 512" viewBox="0 0 512 512" xmlns="http://www.w3.org/2000/svg"><g id="Layer_2_00000044898834358923691800000009482008225655107510_"><g id="Layer_1_copy"><g id="_99"><path d="m388.5 512c-17.6 0-31.9-14.3-31.9-31.9 0-8.5 3.4-16.6 9.3-22.5l37.1-37.2h-371.1c-17.6 0-31.9-14.3-31.9-31.9s14.3-31.9 31.9-31.9h371.1l-41.9-41.9c-12.5-12.5-12.5-32.6 0-45.1s32.6-12.5 45.1 0l96.4 96.4c.6.6 1.3 1.4 2 2.1l.6.8c.4.5.8 1 1.1 1.5.2.3.4.6.5.8.5.7.9 1.4 1.3 2.2.2.4.4.7.5 1 .2.5.5 1 .8 1.6l.5 1.1c.2.5.4 1 .5 1.6.1.3.2.6.3 1 .3.9.5 1.7.6 2.6.1.3.1.6.2.9.1.6.2 1.3.3 1.9 0 .3.1.6.1.9.1.7.1 1.3.1 2v.8c0 .9 0 1.7-.1 2.5l-.1 1c-.1.6-.2 1.3-.3 2-.1.3-.1.6-.2.9-.1.6-.3 1.2-.4 1.8-.1.4-.2.7-.3 1.1-.2.6-.4 1.1-.5 1.6l-.2.5-.9 2.2-.2.3c-.1.1-.1.3-.2.5-.2.4-.4.7-.6 1s-.6 1-.9 1.5l-.6.9c-.4.6-.8 1.1-1.2 1.7l-.5.6c-.5.6-1.1 1.2-1.7 1.9l-.4.4-91.7 91.5c-6 6-14.1 9.3-22.5 9.3zm-356.6-149.4c-14.3-.3-26.1 11.1-26.4 25.4s11.1 26.2 25.4 26.5h1 385.5l-47.3 47.3c-9.5 10.8-8.5 27.2 2.3 36.7 9.8 8.7 24.6 8.7 34.4 0l91.6-91.6.3-.3c.5-.5 1-1 1.4-1.5.1-.2.3-.3.4-.5.4-.5.7-.9 1-1.4l.5-.7c.3-.4.5-.8.7-1.2l.5-.8c.1-.2.2-.4.3-.5l.2-.3.6-1.6c0-.1.1-.3.1-.3.1-.4.3-.8.5-1.3.1-.2.2-.5.2-.9s.2-.9.4-1.5c0-.2.1-.5.1-.7.1-.6.2-1.1.3-1.7l.1-.7c.1-.7.1-1.4.1-2.1 0-.2 0-.4 0-.6 0-.6 0-1.1-.1-1.6l-.1-.7c-.1-.5-.1-1-.2-1.6 0-.2-.1-.5-.1-.7-.1-.7-.3-1.3-.5-2.1-.1-.2-.1-.5-.2-.8-.1-.5-.3-.9-.5-1.3s-.2-.6-.4-1-.4-.9-.6-1.3-.2-.5-.4-.8c-.3-.6-.7-1.2-1-1.8l-.5-.7c-.3-.5-.6-.9-.9-1.3l-.5-.6c-.5-.7-1.1-1.2-1.6-1.8l-96.4-96.3c-10.1-10.1-26.6-10.1-36.7 0s-10.1 26.6 0 36.7l52 52.1h-385.5z"/><path d="m496.3 394.4c0-.2.1-.3.1-.5s.1-.5.2-.8l.1-.4c.1-.4.1-.8.2-1.2 0-.4.1-.8.1-1.2v-.4c0-.3 0-.6 0-.9v-.4c0-.3-.1-.6-.1-1 0-.1 0-.2 0-.3-.1-.4-.2-.8-.3-1.1l-.1-.5c-.1-.2-.2-.5-.2-.7s-.1-.3-.2-.5-.2-.5-.4-.8l-.2-.4c-.2-.3-.4-.7-.6-1l-.2-.4c-.2-.2-.3-.5-.5-.7l-.3-.3c-.3-.3-.6-.7-.9-1l-97.5-97.5c-5.6-5.6-14.6-5.6-20.2 0s-5.6 14.6 0 20.2l73.1 73.2h-419c-7.9.2-14.1 6.8-13.9 14.6.2 7.6 6.3 13.7 13.9 13.9h419l-68.4 68.3c-5.4 5.8-5 14.8.7 20.2 5.4 5.1 13.8 5.1 19.3.1l92.7-92.7.1-.1c.3-.3.6-.6.9-1l.1-.2c.2-.3.4-.5.6-.8s.2-.3.3-.4.3-.5.4-.7l.2-.4c.2-.3.3-.7.5-1 .1-.1.1-.3.2-.4s.2-.6.3-.8z"/><path d="m128.3 251.7c-8.5 0-16.6-3.3-22.6-9.3l-96.3-96.4c-.6-.6-1.3-1.3-1.9-2.1-.2-.2-.4-.5-.6-.7-.5-.6-.8-1.1-1.2-1.7l-.5-.7c-.5-.8-1-1.6-1.4-2.3-.2-.3-.3-.6-.5-.9-.3-.6-.5-1.1-.8-1.6-.1-.4-.3-.7-.4-1.1s-.4-1-.5-1.6-.2-.7-.3-1c-.2-.9-.5-1.7-.6-2.6-.1-.3-.1-.5-.1-.8-.1-.6-.2-1.3-.3-2 0-.2 0-.5-.1-.8v-.1c0-.7-.1-1.4-.1-2 0-.3 0-.5 0-.8 0-.6 0-1.2 0-1.7v-1.8l.3-1.2c0-.3.1-.5.1-.8s.1-.6.2-.8c.2-.7.3-1.2.4-1.8.1-.4.2-.7.3-1.1.2-.5.4-1.1.6-1.6 0-.2.4-1.2.4-1.2l.3-.6c.2-.6.5-1.1.8-1.7.2-.3.3-.6.5-.9.3-.6.6-1.1 1-1.6l.6-.9c.4-.6.8-1.1 1.2-1.7.2-.2.3-.4.5-.6.5-.6 1-1.2 1.6-1.8.1-.1.3-.3.4-.5l91.7-91.6c12.2-12.7 32.4-13.1 45.1-1 12.7 12.2 13.1 32.4 1 45.1-.3.3-.6.6-1 1l-37.2 37.2h371.2c17.6 0 31.9 14.3 31.9 31.9s-14.3 31.9-31.9 31.9h-371.2l41.9 41.9c12.4 12.5 12.4 32.6 0 45.1-5.9 5.9-14.1 9.3-22.5 9.3zm-119.6-116.7c.1.2.2.4.4.7.3.6.7 1.2 1.1 1.9l.4.6c.3.5.6.9 1 1.4l.5.6c.5.6 1 1.2 1.6 1.7l96.3 96.4c10 10.3 26.4 10.5 36.7.5s10.5-26.4.5-36.7c-.2-.2-.4-.4-.5-.5l-52-52.1h385.5c14.3.3 26.2-11.1 26.5-25.4s-11.1-26.2-25.4-26.5c-.3 0-.7 0-1 0h-385.7l47.3-47.3c10.3-10 10.5-26.4.5-36.7s-26.4-10.6-36.7-.6c-.2.2-.4.4-.5.5l-91.6 91.6-.3.3c-.5.6-1 1-1.4 1.5l-.4.5c-.4.5-.7 1-1 1.4-.2.2-.3.5-.4.7-.3.4-.5.8-.8 1.3l-.4.7c-.2.5-.5.9-.7 1.4l-.2.3-.4 1c-.2.5-.3.9-.5 1.4-.1.3-.2.6-.2.9-.1.5-.2 1-.4 1.5 0 .2-.1.5-.1.7s-.1.6-.1.8l0 .5-.2.5v1.2 1.5.6c0 .6 0 1.1.1 1.7v.1c0 .2 0 .4.1.6 0 .6.1 1.1.2 1.7 0 .2.1.4.1.6.1.7.3 1.4.5 2.1.1.2.2.5.2.8s.3.9.4 1.3.2.6.4.9c.2.5.4.9.6 1.4z"/><path d="m15.1 122.1v.9.4c0 .3.1.7.1 1v.2c.1.4.2.8.3 1.2 0 .2.1.3.1.4s.2.5.2.7.1.3.2.5.2.5.4.8l.2.4c.2.3.4.7.6 1 .1.1.2.2.2.4s.4.5.5.7l.3.3c.3.3.6.6.9 1l97.5 97.5c5.7 5.4 14.7 5.2 20.2-.5 5.2-5.5 5.2-14.1 0-19.6l-73-73.2h419c7.9.2 14.4-6 14.6-13.9s-6-14.4-13.9-14.6c-.3 0-.5 0-.8 0h-419l68.4-68.3c5.4-5.7 5.2-14.7-.5-20.2-5.5-5.2-14.1-5.2-19.6 0l-92.7 92.7-.1.1c-.3.3-.6.6-.9 1l-.1.2c-.2.3-.4.6-.6.8-.1.1-.2.3-.2.4s-.3.5-.4.7-.2.3-.2.4c-.2.3-.3.7-.5 1-.1.1-.1.3-.2.4s-.2.5-.3.8-.1.3-.1.5-.1.5-.2.8-.1.3-.1.4c-.1.4-.1.8-.2 1.2 0 .4 0 .8-.1 1.2z"/></g></g></g></svg>