<svg version="1.1" id="Layer_1" xmlns="http://www.w3.org/2000/svg" xmlns:xlink="http://www.w3.org/1999/xlink" x="0px" y="0px" viewBox="0 0 512 512" style="enable-background:new 0 0 512 512;" xml:space="preserve">
<g>
	<polyline style="fill:none;stroke:#000000;stroke-width:15;stroke-miterlimit:10;" points="504.5,165.908 504.5,128.435 &#10;&#9;&#9;256,128.435 &#9;"/>
	<path style="fill:none;stroke:#000000;stroke-width:15;stroke-miterlimit:10;" d="M256,383.451h84.487&#10;&#9;&#9;c6.094,0,9.851,6.536,6.907,11.872c-3.363,6.094-5.079,13.223-4.548,20.789c1.295,18.473,16.268,33.429,34.743,34.704&#10;&#9;&#9;c21.915,1.513,40.162-15.817,40.162-37.408c0-6.632-1.722-12.861-4.743-18.265c-2.929-5.239,1.008-11.693,7.01-11.693H504.5&#10;&#9;&#9;V180.908"/>
	<path style="fill:none;stroke:#000000;stroke-width:15;stroke-miterlimit:10;" d="M91,383.451h165v-87.548&#10;&#9;&#9;c0-6.103,6.546-10.07,11.886-7.117c5.369,2.968,11.544,4.658,18.114,4.658c21.085,0,38.105-17.402,37.484-38.626&#10;&#9;&#9;c-0.559-19.099-15.747-34.959-34.808-36.281c-7.489-0.52-14.549,1.162-20.6,4.461c-5.441,2.967-12.075-0.819-12.075-7.016v-87.546&#10;&#9;&#9;l-84.275,0c-6.212,0-10.001-6.65-7.027-12.105c3.296-6.047,4.977-13.101,4.46-20.584c-1.316-19.068-17.181-34.264-36.287-34.822&#10;&#9;&#9;c-21.223-0.619-38.621,16.4-38.621,37.484c0,6.569,1.689,12.743,4.657,18.112c2.959,5.354-1.012,11.914-7.129,11.914H7.5v88.077&#10;&#9;&#9;c0,6.191,6.722,10.192,12.062,7.06c6.083-3.568,13.262-5.47,20.91-5.078c19.359,0.991,34.973,17.001,35.514,36.378&#10;&#9;&#9;c0.591,21.2-16.418,38.572-37.485,38.572c-6.898,0-13.36-1.863-18.911-5.113c-5.355-3.135-12.089,0.837-12.089,7.042v88.079H76"/>
	<g>
		
			<line style="fill:none;stroke:#000000;stroke-width:15;stroke-miterlimit:10;" x1="353.48" y1="90.908" x2="332.266" y2="69.695"/>
		<line style="fill:none;stroke:#000000;stroke-width:15;stroke-miterlimit:10;" x1="380.25" y1="79.82" x2="380.25" y2="49.82"/>
		
			<line style="fill:none;stroke:#000000;stroke-width:15;stroke-miterlimit:10;" x1="407.02" y1="90.908" x2="428.234" y2="69.695"/>
	</g>
	<g>
		
			<line style="fill:none;stroke:#000000;stroke-width:15;stroke-miterlimit:10;" x1="159.642" y1="421.092" x2="180.855" y2="442.305"/>
		
			<line style="fill:none;stroke:#000000;stroke-width:15;stroke-miterlimit:10;" x1="132.871" y1="432.18" x2="132.871" y2="462.18"/>
		
			<line style="fill:none;stroke:#000000;stroke-width:15;stroke-miterlimit:10;" x1="106.101" y1="421.092" x2="84.888" y2="442.305"/>
	</g>
	<line style="fill:none;stroke:#000000;stroke-width:15;stroke-miterlimit:10;" x1="53.66" y1="165.908" x2="53.66" y2="180.908"/>
	
		<line style="fill:none;stroke:#000000;stroke-width:15;stroke-miterlimit:10;" x1="83.532" y1="165.908" x2="83.532" y2="180.908"/>
</g>
<g>
</g>
<g>
</g>
<g>
</g>
<g>
</g>
<g>
</g>
<g>
</g>
<g>
</g>
<g>
</g>
<g>
</g>
<g>
</g>
<g>
</g>
<g>
</g>
<g>
</g>
<g>
</g>
<g>
</g>
</svg>