<svg height="512" viewBox="0 0 24 24" width="512" xmlns="http://www.w3.org/2000/svg"><g id="Layer_2" data-name="Layer 2"><path d="m8.8 12.75a5.384 5.384 0 1 1 5.384-5.384 5.39 5.39 0 0 1 -5.384 5.384zm0-9.268a3.884 3.884 0 1 0 3.884 3.884 3.889 3.889 0 0 0 -3.884-3.884z"/><path d="m12.826 22.018h-8.045a3.532 3.532 0 0 1 -3.462-4.218l.146-.727a7.257 7.257 0 0 1 7.1-5.818h.484a7.258 7.258 0 0 1 7.1 5.818l.145.727a3.531 3.531 0 0 1 -3.462 4.223zm-4.264-9.268a5.751 5.751 0 0 0 -5.626 4.612l-.146.727a2.032 2.032 0 0 0 1.991 2.429h8.045a2.032 2.032 0 0 0 1.991-2.429l-.145-.727a5.752 5.752 0 0 0 -5.626-4.612z"/><path d="m22 4.75h-6a.75.75 0 0 1 0-1.5h6a.75.75 0 0 1 0 1.5z"/><path d="m22 8.75h-6a.75.75 0 0 1 0-1.5h6a.75.75 0 0 1 0 1.5z"/><path d="m22 12.75h-6a.75.75 0 0 1 0-1.5h6a.75.75 0 0 1 0 1.5z"/></g></svg>